<svg width="900" height="392" viewBox="0 0 900 392" fill="none" xmlns="http://www.w3.org/2000/svg">
<path fill-rule="evenodd" clip-rule="evenodd" d="M585 164.125C585 112.081 542.545 69.9118 490.201 69.9118C437.81 69.9118 395.371 112.081 395.371 164.125C395.371 216.137 437.825 258.307 490.201 258.307C542.545 258.307 585 216.137 585 164.125ZM409.897 165.154C409.897 120.753 445.959 84.8334 490.47 84.8334C534.95 84.8334 570.98 120.769 570.98 165.154C570.98 209.523 534.95 245.458 490.47 245.458C445.959 245.458 409.897 209.507 409.897 165.154Z" fill="#434343"/>
<path fill-rule="evenodd" clip-rule="evenodd" d="M360.654 322.519L331.824 293.688L395.703 229.793C395.703 229.793 397.222 241.898 404.881 249.525C412.508 257.183 424.534 258.639 424.534 258.639L360.654 322.519Z" fill="#434343"/>
<g clip-path="url(#clip0_0_1)">
<path d="M507.57 140.24H471.43C469.658 140.24 468.222 138.803 468.222 137.032V113.787C468.222 112.015 469.658 110.579 471.43 110.579H507.57C509.342 110.579 510.778 112.015 510.778 113.787V137.032C510.778 138.803 509.342 140.24 507.57 140.24Z" fill="#2196F3"/>
<path d="M481.118 151.072C480.833 151.072 480.602 150.841 480.602 150.556V140.24C480.602 139.955 480.833 139.724 481.118 139.724H497.882C498.167 139.724 498.398 139.955 498.398 140.24V150.556C498.398 150.841 498.167 151.072 497.882 151.072H481.118Z" fill="#ECF0F1"/>
<path d="M538.391 208.104H502.251C500.479 208.104 499.043 206.668 499.043 204.896V181.651C499.043 179.879 500.479 178.443 502.251 178.443H538.391C540.163 178.443 541.599 179.879 541.599 181.651V204.896C541.599 206.668 540.163 208.104 538.391 208.104Z" fill="#4CAF50"/>
<path d="M511.939 218.936C511.654 218.936 511.423 218.705 511.423 218.42V208.104C511.423 207.819 511.654 207.588 511.939 207.588H528.703C528.988 207.588 529.219 207.819 529.219 208.104V218.42C529.219 218.705 528.988 218.936 528.703 218.936H511.939Z" fill="#ECF0F1"/>
<path d="M476.749 208.104H440.609C438.837 208.104 437.401 206.668 437.401 204.896V181.651C437.401 179.879 438.837 178.443 440.609 178.443H476.749C478.521 178.443 479.957 179.879 479.957 181.651V204.896C479.957 206.668 478.521 208.104 476.749 208.104Z" fill="#FFC107"/>
<path d="M450.297 218.936C450.012 218.936 449.781 218.705 449.781 218.42V208.104C449.781 207.819 450.012 207.588 450.297 207.588H467.061C467.346 207.588 467.577 207.819 467.577 208.104V218.42C467.577 218.705 467.346 218.936 467.061 218.936H450.297Z" fill="#ECF0F1"/>
<path d="M538.391 175.864H522.9V165.596C522.9 164.171 521.745 163.017 520.321 163.017H492.079V153.135H505.749C507.173 153.135 508.328 151.981 508.328 150.556C508.328 149.132 507.173 147.977 505.749 147.977H500.461V142.819H507.57C510.761 142.819 513.357 140.223 513.357 137.032V113.787C513.357 110.596 510.761 108 507.57 108H471.43C468.239 108 465.643 110.596 465.643 113.787V137.032C465.643 140.223 468.239 142.819 471.43 142.819H478.539V147.977H473.251C471.827 147.977 470.672 149.132 470.672 150.556C470.672 151.98 471.827 153.135 473.251 153.135H486.921V163.017H458.679C457.255 163.017 456.1 164.171 456.1 165.596V175.864H440.609C437.418 175.864 434.822 178.46 434.822 181.651V204.896C434.822 208.087 437.418 210.683 440.609 210.683H447.718V215.841H442.43C441.006 215.841 439.851 216.996 439.851 218.42C439.851 219.845 441.006 221 442.43 221H474.928C476.352 221 477.507 219.845 477.507 218.42C477.507 216.996 476.352 215.841 474.928 215.841H469.641V210.683H476.75C479.941 210.683 482.537 208.087 482.537 204.896V181.652C482.537 178.461 479.941 175.865 476.75 175.865H461.258V168.175H517.742V175.865H502.251C499.06 175.865 496.464 178.461 496.464 181.652V204.896C496.464 208.087 499.06 210.683 502.251 210.683H509.36V215.842H504.072C502.648 215.842 501.493 216.996 501.493 218.421C501.493 219.845 502.648 221 504.072 221H536.57C537.994 221 539.149 219.845 539.149 218.421C539.149 216.996 537.994 215.842 536.57 215.842H531.282V210.683H538.392C541.582 210.683 544.179 208.088 544.179 204.896V181.652C544.178 178.46 541.582 175.864 538.391 175.864ZM464.482 215.841H452.876V210.683H464.482L464.482 215.841ZM476.749 181.023C477.096 181.023 477.378 181.304 477.378 181.651V195.466H463.515C462.091 195.466 460.936 196.621 460.936 198.045C460.936 199.47 462.091 200.625 463.515 200.625H477.378V204.896C477.378 205.243 477.096 205.525 476.749 205.525H440.609C440.262 205.525 439.98 205.243 439.98 204.896V181.652C439.98 181.305 440.262 181.023 440.609 181.023L476.749 181.023ZM471.43 137.66C471.083 137.66 470.801 137.379 470.801 137.032V113.787C470.801 113.44 471.083 113.158 471.43 113.158H507.57C507.917 113.158 508.199 113.44 508.199 113.787V127.803H496.077C494.652 127.803 493.498 128.957 493.498 130.382C493.498 131.806 494.652 132.961 496.077 132.961H508.199V137.032C508.199 137.378 507.917 137.66 507.57 137.66H471.43ZM483.697 147.977V142.819H495.303V147.977H483.697ZM526.124 215.841H514.518V210.683H526.124V215.841ZM538.391 205.525H502.251C501.904 205.525 501.622 205.243 501.622 204.896V181.651C501.622 181.304 501.904 181.022 502.251 181.022H538.391C538.738 181.022 539.02 181.304 539.02 181.651V195.466H526.898C525.473 195.466 524.319 196.621 524.319 198.045C524.319 199.469 525.473 200.624 526.898 200.624H539.02V204.896C539.02 205.243 538.738 205.525 538.391 205.525Z" fill="#434343"/>
<path d="M485.846 127.803H484.384C482.96 127.803 481.805 128.957 481.805 130.382C481.805 131.806 482.96 132.961 484.384 132.961H485.846C487.27 132.961 488.425 131.806 488.425 130.382C488.425 128.957 487.271 127.803 485.846 127.803Z" fill="#231F20"/>
<path d="M516.667 195.466H515.205C513.781 195.466 512.626 196.621 512.626 198.045C512.626 199.469 513.781 200.624 515.205 200.624H516.667C518.092 200.624 519.246 199.469 519.246 198.045C519.246 196.621 518.092 195.466 516.667 195.466Z" fill="#231F20"/>
<path d="M451.823 200.624H453.284C454.709 200.624 455.863 199.469 455.863 198.045C455.863 196.621 454.709 195.466 453.284 195.466H451.823C450.398 195.466 449.243 196.621 449.243 198.045C449.243 199.469 450.398 200.624 451.823 200.624Z" fill="#231F20"/>
</g>
<defs>
<clipPath id="clip0_0_1">
<rect width="113" height="113" fill="white" transform="translate(433 108)"/>
</clipPath>
</defs>
</svg>
